<svg width="32" height="32" viewBox="0 0 32 32" fill="none" xmlns="http://www.w3.org/2000/svg">
  <g clip-path="url(#clip0_6557_13968)">
    <circle cx="16" cy="16" r="16" fill="url(#paint0_linear_6557_13968)" />
    <path fill-rule="evenodd" clip-rule="evenodd" d="M22.4436 16.8114C23.0151 17.4229 23.2756 18.0677 23.2756 18.6669C23.2756 19.5625 22.6937 20.5597 21.3615 21.3956C20.0466 22.2206 18.154 22.7711 15.9994 22.7711C13.8447 22.7711 11.9521 22.2206 10.6372 21.3956C9.30502 20.5597 8.72306 19.5625 8.72306 18.6669V18.6667H7.5V18.6669C7.5 21.6123 11.3053 24 15.9994 24C20.6934 24 24.4987 21.6123 24.4987 18.6669C24.4987 15.7216 20.6934 13.3339 15.9994 13.3339C13.4234 13.3339 11.1151 14.0529 9.55645 15.1886C8.98491 14.5771 8.72435 13.9323 8.72435 13.3331C8.72435 12.4375 9.30631 11.4403 10.6385 10.6044C11.9534 9.77937 13.846 9.22892 16.0006 9.22892C18.1553 9.22892 20.0479 9.77937 21.3628 10.6044C22.695 11.4403 23.2769 12.4375 23.2769 13.3331V13.3333H24.5V13.3331C24.5 10.3877 20.6947 8 16.0006 8C11.3066 8 7.50129 10.3877 7.50129 13.3331C7.50129 16.2784 11.3066 18.6661 16.0006 18.6661C18.5766 18.6661 20.8849 17.9471 22.4436 16.8114ZM21.4587 16.0004C21.4268 15.9796 21.3944 15.9589 21.3615 15.9382C20.0466 15.1132 18.154 14.5628 15.9994 14.5628C13.8447 14.5628 11.9521 15.1132 10.6372 15.9382C10.6048 15.9586 10.5728 15.979 10.5413 15.9996C10.5732 16.0204 10.6056 16.0411 10.6385 16.0618C11.9534 16.8868 13.846 17.4372 16.0006 17.4372C18.1553 17.4372 20.0479 16.8868 21.3628 16.0618C21.3952 16.0414 21.4272 16.021 21.4587 16.0004Z" fill="url(#paint1_linear_6557_13968)" />
  </g>
  <defs>
    <linearGradient id="paint0_linear_6557_13968" x1="16" y1="0" x2="16" y2="19.6701" gradientUnits="userSpaceOnUse">
      <stop stop-color="#433581" />
      <stop offset="1" stop-color="#02030B" />
    </linearGradient>
    <linearGradient id="paint1_linear_6557_13968" x1="7.39605" y1="15.8032" x2="24.6061" y2="16.0325" gradientUnits="userSpaceOnUse">
      <stop stop-color="#C7ACFF" />
      <stop offset="0.8706" stop-color="white" />
    </linearGradient>
    <clipPath id="clip0_6557_13968">
      <rect width="32" height="32" rx="16" fill="white" />
    </clipPath>
  </defs>
</svg>