<svg width="24" height="24" viewBox="0 0 24 24" fill="none" xmlns="http://www.w3.org/2000/svg">
<path d="M21.9635 2.85406C21.9122 2.65753 21.8087 2.47852 21.6641 2.33594C21.5215 2.19128 21.3425 2.08783 21.146 2.0365C21.0526 2.01215 20.957 2 20.8614 2C20.7557 2 20.65 2.01489 20.5476 2.04456L2.83124 7.04144C2.60767 7.10449 2.40869 7.23425 2.26087 7.41345C2.11304 7.59265 2.02344 7.81268 2.00397 8.04413C1.98456 8.27563 2.03626 8.50751 2.15216 8.7088C2.26807 8.91016 2.44263 9.07129 2.65259 9.17072L10.7925 13.0264C10.8718 13.0641 10.9357 13.128 10.9734 13.2073L14.8292 21.3472C14.9204 21.5428 15.0657 21.7082 15.2479 21.8238C15.4291 21.9389 15.6393 22 15.854 22H15.8572C15.8899 22 15.9228 21.9986 15.9558 21.9958C16.1877 21.9777 16.4084 21.8885 16.5878 21.7405C16.7672 21.5925 16.8967 21.3928 16.9586 21.1686L21.9554 3.45239C22.012 3.25732 22.0148 3.0506 21.9635 2.85406ZM21.2336 3.24884L16.2357 20.969C16.2147 21.045 16.1714 21.1118 16.1105 21.1619C16.0497 21.2122 15.976 21.2419 15.854 21.25C15.7816 21.25 15.7111 21.2295 15.6497 21.1905C15.5883 21.1516 15.5397 21.0962 15.507 21.0261L11.6508 12.8853C11.6503 12.8843 11.6494 12.8837 11.6489 12.8827L15.7734 8.75824C15.9198 8.61182 15.9198 8.37433 15.7734 8.22791C15.6269 8.08148 15.3895 8.08148 15.243 8.22791L11.1187 12.3522C11.1168 12.3513 11.1155 12.3495 11.1136 12.3486L2.97363 8.49286C2.90131 8.45868 2.84204 8.40393 2.80212 8.33459C2.76221 8.26532 2.74469 8.18652 2.75134 8.10687C2.75806 8.02716 2.78851 7.95245 2.83936 7.89075C2.89026 7.82904 2.95789 7.78497 3.03479 7.76324L20.7565 2.76489C20.7906 2.755 20.8259 2.75 20.8614 2.75C20.8935 2.75 20.9255 2.75409 20.9566 2.76221C21.0223 2.77936 21.0822 2.81403 21.1375 2.87C21.186 2.91779 21.2206 2.97772 21.2378 3.04352C21.2549 3.10913 21.254 3.17828 21.2336 3.24884Z" fill="black"/>
</svg>
